<svg width="24" height="24" viewBox="0 0 24 24" fill="none" xmlns="http://www.w3.org/2000/svg">
<path d="M15.2482 21.1992C14.9467 21.6033 14.5519 21.9321 14.0959 22.1587C13.6399 22.3853 13.1356 22.5035 12.6241 22.5035C12.1126 22.5035 11.6083 22.3853 11.1523 22.1587C10.6963 21.9321 10.3015 21.6033 10 21.1992" stroke="#161616" stroke-width="2" stroke-linecap="round" stroke-linejoin="round"/>
<path d="M15.6579 18.3949H20.5319C21.3729 18.3949 21.8956 17.4432 21.491 16.7059C20.6946 15.2546 19.7172 13.1566 19.7195 11.6043V10.7803V10.7214C19.7195 8.84809 18.959 5.99888 17.6051 4.67426C16.2513 3.34963 14.4152 2.60547 12.5006 2.60547C10.586 2.60547 8.74987 3.34963 7.39606 4.67426C6.04225 5.99888 5.28169 8.84809 5.28169 10.7214V11.6043C5.28384 13.1566 4.30617 15.2544 3.50945 16.7057C3.10471 17.443 3.62742 18.3949 4.46848 18.3949H9.34211M15.6579 18.3949H9.34211Z" stroke="#161616" stroke-width="2" stroke-linecap="round" stroke-linejoin="round"/>
<circle cx="22" cy="2" r="2" fill="#E71F2A"/>
</svg>
