<svg width="21" height="23" viewBox="0 0 21 23" fill="none" xmlns="http://www.w3.org/2000/svg">
<path d="M13.2482 20.1992C12.9467 20.6033 12.5519 20.9321 12.0959 21.1587C11.6399 21.3853 11.1356 21.5035 10.6241 21.5035C10.1126 21.5035 9.60834 21.3853 9.15234 21.1587C8.69634 20.9321 8.30152 20.6033 8 20.1992" stroke="#161616" stroke-width="2" stroke-linecap="round" stroke-linejoin="round"/>
<path d="M13.6579 17.3949H18.5319C19.3729 17.3949 19.8956 16.4432 19.491 15.7059C18.6946 14.2546 17.7172 12.1566 17.7195 10.6043V9.78025V9.72139C17.7195 7.84809 16.959 4.99888 15.6051 3.67426C14.2513 2.34963 12.4152 1.60547 10.5006 1.60547C8.58603 1.60547 6.74987 2.34963 5.39606 3.67426C4.04225 4.99888 3.28169 7.84809 3.28169 9.72139V10.6043C3.28384 12.1566 2.30617 14.2544 1.50945 15.7057C1.10471 16.443 1.62742 17.3949 2.46848 17.3949H7.34211M13.6579 17.3949H7.34211Z" stroke="#161616" stroke-width="2" stroke-linecap="round" stroke-linejoin="round"/>
</svg>
