<svg width="24" height="24" viewBox="0 0 24 24" fill="none" xmlns="http://www.w3.org/2000/svg">
<g id="Frame">
<path id="Vector" d="M8.84375 12.0011H8.52083M12.0729 12.0011H11.75M15.3021 12.0011H14.9792M8.84375 12.0011C8.84375 12.0855 8.80973 12.1665 8.74917 12.2262C8.68861 12.2858 8.60648 12.3194 8.52083 12.3194C8.43519 12.3194 8.35306 12.2858 8.2925 12.2262C8.23194 12.1665 8.19792 12.0855 8.19792 12.0011C8.19792 11.9167 8.23194 11.8358 8.2925 11.7761C8.35306 11.7164 8.43519 11.6829 8.52083 11.6829C8.60648 11.6829 8.68861 11.7164 8.74917 11.7761C8.80973 11.8358 8.84375 11.9167 8.84375 12.0011V12.0011ZM12.0729 12.0011C12.0729 12.0855 12.0389 12.1665 11.9783 12.2262C11.9178 12.2858 11.8356 12.3194 11.75 12.3194C11.6644 12.3194 11.5822 12.2858 11.5217 12.2262C11.4611 12.1665 11.4271 12.0855 11.4271 12.0011C11.4271 11.9167 11.4611 11.8358 11.5217 11.7761C11.5822 11.7164 11.6644 11.6829 11.75 11.6829C11.8356 11.6829 11.9178 11.7164 11.9783 11.7761C12.0389 11.8358 12.0729 11.9167 12.0729 12.0011V12.0011ZM15.3021 12.0011C15.3021 12.0855 15.2681 12.1665 15.2075 12.2262C15.1469 12.2858 15.0648 12.3194 14.9792 12.3194C14.8935 12.3194 14.8114 12.2858 14.7508 12.2262C14.6903 12.1665 14.6562 12.0855 14.6562 12.0011C14.6562 11.9167 14.6903 11.8358 14.7508 11.7761C14.8114 11.7164 14.8935 11.6829 14.9792 11.6829C15.0648 11.6829 15.1469 11.7164 15.2075 11.7761C15.2681 11.8358 15.3021 11.9167 15.3021 12.0011V12.0011ZM19.5 12.0011C19.5 15.8675 16.0297 19.0023 11.75 19.0023C11.007 19.0032 10.2672 18.907 9.54986 18.7163C8.53871 19.4171 7.30522 19.7356 6.07528 19.6133C5.93853 19.6003 5.80236 19.5819 5.66711 19.5581C6.09152 19.0652 6.38138 18.4737 6.50928 17.8397C6.58678 17.4518 6.39475 17.0751 6.10714 16.7993C4.80083 15.5467 4 13.8588 4 12.0011C4 8.13481 7.47028 5 11.75 5C16.0297 5 19.5 8.13481 19.5 12.0011Z" stroke="#70747E" stroke-width="1.5" stroke-linecap="round" stroke-linejoin="round"/>
</g>
</svg>
