<svg width="295" height="430" viewBox="0 0 295 430" fill="none" xmlns="http://www.w3.org/2000/svg">
<path d="M77.1807 330.028L29.966 326.332C25.3736 325.973 21.2036 329.012 20.1392 333.493L3.2979 404.404C1.74472 410.944 7.39295 416.937 14.0132 415.774L74.7359 405.108C77.049 404.701 79.4608 405.235 81.5035 406.394C128.026 432.792 149.47 366.78 155.468 323.677C156.076 319.31 153.389 315.213 149.198 313.845L105.594 299.611C100.871 298.07 95.7674 300.49 93.9731 305.123L86.6294 324.083C85.138 327.934 81.2974 330.35 77.1807 330.028Z" fill="#0E9187"/>
<mask id="mask0_1149_7585" style="mask-type:alpha" maskUnits="userSpaceOnUse" x="0" y="296" width="157" height="123">
<path d="M84.1029 330.574L21.9745 325.712L-0.000412402 418.238L78.3194 404.479C129.901 437.607 151.845 359.426 156.369 316.194L97.159 296.866L84.1029 330.574Z" fill="#2DCB88"/>
</mask>
<g mask="url(#mask0_1149_7585)">
<path d="M162.5 341.631L78.2461 322.679L92.5073 296.783H140.545L167.191 311.607L162.5 341.631Z" fill="#020101"/>
</g>
<path fill-rule="evenodd" clip-rule="evenodd" d="M57.5088 124.772L214.046 112.991C224.421 112.21 233.438 120.047 234.112 130.428L244.1 284.358C244.765 294.611 237.034 303.481 226.785 304.221L225.593 304.307L242.535 327.568C243.524 328.925 244.86 329.991 246.402 330.654L289.34 349.102C295.881 351.912 297.007 360.71 291.385 365.077L232.457 410.855C228.519 413.915 222.873 413.345 219.625 409.561L135.336 311.347C135.198 311.186 135.066 311.022 134.941 310.855L65.8427 315.845C55.0121 316.627 45.7946 308.052 45.7946 297.193V202.684L40.2963 145.201C39.2988 134.772 47.062 125.558 57.5088 124.772Z" fill="url(#paint0_linear_1149_7585)"/>
<path d="M134.263 233.283C134.819 238.416 155.156 236.587 154.649 231.91" stroke="#07524C" stroke-width="12.0777" stroke-linecap="round"/>
<ellipse cx="30.8698" cy="30.8698" rx="30.8698" ry="30.8698" transform="matrix(0.996391 -0.0848815 0.0848803 0.996391 83.1963 164.457)" fill="white"/>
<ellipse cx="30.8698" cy="30.8698" rx="30.8698" ry="30.8698" transform="matrix(0.996391 -0.0848822 0.0848796 0.996391 133.857 160.143)" fill="white"/>
<ellipse cx="20.8825" cy="20.8825" rx="20.8825" ry="20.8825" transform="matrix(0.996391 -0.0848822 0.0848796 0.996391 93.9902 173.57)" fill="#191919"/>
<ellipse cx="20.8825" cy="20.8825" rx="20.8825" ry="20.8825" transform="matrix(0.996391 -0.0848822 0.0848796 0.996391 144.657 169.254)" fill="#191919"/>
<path fill-rule="evenodd" clip-rule="evenodd" d="M181.021 66.2068C185.08 59.6213 187.416 51.8965 187.416 43.6356C187.416 19.5363 167.531 0 143.002 0C118.472 0 98.5869 19.5363 98.5869 43.6356C98.5869 51.8883 100.919 59.6059 104.971 66.1871C110.062 75.5679 119.752 88.8806 134.433 99.132C139.587 102.731 146.415 102.731 151.569 99.132C166.239 88.8878 175.926 75.5866 181.021 66.2068Z" fill="#FF9D9D"/>
<ellipse cx="142.984" cy="42.8412" rx="22.5814" ry="22.5814" fill="white"/>
<defs>
<linearGradient id="paint0_linear_1149_7585" x1="275.791" y1="71.5727" x2="133.444" y2="338.533" gradientUnits="userSpaceOnUse">
<stop stop-color="#75D27E"/>
<stop offset="1" stop-color="#47C4B6"/>
</linearGradient>
</defs>
</svg>
