<svg width="32" height="32" viewBox="0 0 32 32" fill="none" xmlns="http://www.w3.org/2000/svg">
<circle cx="16" cy="16" r="12" fill="#F9F9F9" stroke="#F2F2F2"/>
<path d="M12.5513 12.1168C12.4313 12.3067 12.2712 12.4681 12.0822 12.5896C11.8932 12.7111 11.68 12.7898 11.4573 12.8201C11.204 12.8561 10.9527 12.8948 10.7013 12.9368C9.99933 13.0535 9.5 13.6715 9.5 14.3828V20.0001C9.5 20.398 9.65804 20.7795 9.93934 21.0608C10.2206 21.3421 10.6022 21.5001 11 21.5001H21C21.3978 21.5001 21.7794 21.3421 22.0607 21.0608C22.342 20.7795 22.5 20.398 22.5 20.0001V14.3828C22.5 13.6715 22 13.0535 21.2987 12.9368C21.0471 12.8949 20.7951 12.856 20.5427 12.8201C20.3202 12.7897 20.107 12.711 19.9181 12.5895C19.7293 12.468 19.5693 12.3067 19.4493 12.1168L18.9013 11.2395C18.7783 11.0395 18.6088 10.8722 18.4074 10.7516C18.2059 10.6311 17.9784 10.5608 17.744 10.5468C16.5822 10.4844 15.4178 10.4844 14.256 10.5468C14.0216 10.5608 13.7941 10.6311 13.5926 10.7516C13.3912 10.8722 13.2217 11.0395 13.0987 11.2395L12.5513 12.1168Z" fill="#242B37"/>
<path d="M18.6806 16.5008C18.6806 17.1833 18.4095 17.8377 17.927 18.3203C17.4444 18.8028 16.79 19.0739 16.1075 19.0739C15.4251 19.0739 14.7706 18.8028 14.2881 18.3203C13.8055 17.8377 13.5344 17.1833 13.5344 16.5008C13.5344 15.8184 13.8055 15.1639 14.2881 14.6814C14.7706 14.1988 15.4251 13.9277 16.1075 13.9277C16.79 13.9277 17.4444 14.1988 17.927 14.6814C18.4095 15.1639 18.6806 15.8184 18.6806 16.5008ZM19.9672 15.2143H19.9718V15.2189H19.9672V15.2143Z" fill="white"/>
<circle cx="19.7333" cy="14.4005" r="0.533333" fill="white"/>
</svg>
