<svg width="24" height="24" viewBox="0 0 24 24" fill="none" xmlns="http://www.w3.org/2000/svg">
<path d="M22 17.772C22 12.5516 18.175 10 13.5 10C8.825 10 5 12.1166 5 17.772C5 23.4273 11.375 22.9923 13.5 22.9923C15.625 22.9923 22 22.9923 22 17.772Z" fill="#44C3B9" fill-opacity="0.2"/>
<path d="M12 7.5C17.5 7.5 22 10.5 22 16.5C22 22.5 14.5 22.5 12 22.5C9.5 22.5 2 23 2 16.5C2 12.7167 3.52447 10.2886 5.88329 8.91969" stroke="#161616" stroke-width="2" stroke-linecap="round"/>
<path d="M8 14.0527H9.03563" stroke="#161616" stroke-width="1.5" stroke-linecap="round"/>
<path d="M14.8555 14.0527H15.9651" stroke="#161616" stroke-width="1.5" stroke-linecap="round"/>
<path d="M15.9057 12.685L15.9059 12.685L15.9087 12.6754C15.9322 12.594 15.9411 12.5005 15.9411 12.4011C15.9411 12.2369 15.8639 12.0993 15.7467 11.9913C15.6302 11.868 15.4819 11.8 15.3111 11.8C15.1695 11.8 15.0335 11.8263 14.9198 11.897C14.8021 11.9702 14.7259 12.08 14.689 12.2112L13.6999 15.432L12.7255 12.307C12.6809 12.1544 12.5947 12.0272 12.4664 11.9349C12.3411 11.8447 12.1976 11.8 12.0424 11.8C11.8833 11.8 11.7382 11.8513 11.6138 11.9504C11.4913 12.04 11.4053 12.1598 11.3601 12.3049C11.36 12.305 11.36 12.3051 11.3599 12.3053L10.3747 15.4321L9.39596 12.2115C9.35911 12.0801 9.28293 11.9703 9.16513 11.897C9.05135 11.8263 8.91543 11.8 8.77383 11.8C8.6007 11.8 8.44922 11.8696 8.32598 11.9915C8.21364 12.1026 8.14375 12.2407 8.14375 12.4011C8.14375 12.5005 8.15266 12.594 8.17618 12.6754L8.17594 12.6755L8.1792 12.685L9.60461 16.8299L9.60459 16.8299L9.60562 16.8328C9.66107 16.9864 9.76013 17.1141 9.89381 17.2158C10.0343 17.3227 10.1955 17.3782 10.3713 17.3782C10.5524 17.3782 10.7182 17.3244 10.861 17.2158L10.8612 17.216L10.8683 17.21C10.9957 17.1033 11.0939 16.9776 11.1569 16.8322C11.1594 16.8264 11.1617 16.8205 11.1636 16.8145L12.0424 14.1065L12.9213 16.8145L12.9213 16.8145L12.922 16.8166C12.9763 16.9777 13.0747 17.1116 13.2116 17.2158L13.2115 17.2159L13.2173 17.22C13.3632 17.3231 13.5259 17.3782 13.7013 17.3782C13.8824 17.3782 14.0483 17.3244 14.1911 17.2158C14.3248 17.1141 14.4238 16.9864 14.4793 16.8328L14.4793 16.8328L14.4803 16.8299L15.9057 12.685Z" fill="#161616" stroke="#161616" stroke-width="0.4" stroke-linejoin="round"/>
<path d="M6.49923 3.5C7.49923 2.5 9.81613 2.49999 11.9992 2.5H11.9994C14.1824 2.50001 16.999 2.50003 17.499 3.5C17.999 4.5 17.4992 7.5 11.9992 7.5C6.49923 7.5 5.49923 4.5 6.49923 3.5Z" stroke="#161616" stroke-width="2"/>
</svg>
