<svg width="24" height="24" viewBox="0 0 24 24" fill="none" xmlns="http://www.w3.org/2000/svg">
<g id="icon_24/pick" clip-path="url(#clip0_732_15046)">
<path id="Vector" d="M19.7859 12.9447L13.6933 18.9789C12.9139 19.7508 11.658 19.7508 10.8786 18.9789L4.78595 12.9447C4.29125 12.4633 3.90159 11.8847 3.64149 11.2454C3.3814 10.606 3.25651 9.91969 3.27468 9.22967C3.29286 8.53965 3.45371 7.86087 3.7471 7.23607C4.0405 6.61127 4.46008 6.05399 4.97943 5.59932C5.49878 5.14464 6.10665 4.80242 6.76476 4.59422C7.42286 4.38601 8.11695 4.31632 8.80331 4.38954C9.48968 4.46275 10.1534 4.67729 10.7528 5.01964C11.3522 5.36199 11.8742 5.82474 12.2859 6.37874C12.6995 5.82876 13.2221 5.37006 13.821 5.03134C14.42 4.69262 15.0824 4.48118 15.7669 4.41026C16.4513 4.33933 17.143 4.41043 17.7987 4.61913C18.4544 4.82782 19.06 5.16961 19.5775 5.6231C20.095 6.07659 20.5134 6.63202 20.8064 7.25463C21.0994 7.87724 21.2607 8.55362 21.2803 9.24144C21.2998 9.92927 21.1772 10.6137 20.9201 11.252C20.663 11.8902 20.2769 12.4686 19.7859 12.9507" stroke="#70747E" stroke-width="1.5" stroke-linecap="round" stroke-linejoin="round"/>
</g>
<defs>
<clipPath id="clip0_732_15046">
<rect width="24" height="24" fill="white"/>
</clipPath>
</defs>
</svg>
